<svg id="Layer_1" data-name="Layer 1" xmlns="http://www.w3.org/2000/svg" viewBox="0 0 403.06 53.77"><defs><style>.cls-1,.cls-4,.cls-6,.cls-7{fill:none;stroke:#231f20;}.cls-1{stroke-width:0.54px;}.cls-2{fill:#bc262b;}.cls-3{fill:#fff;}.cls-4{stroke-width:0.47px;}.cls-5{fill:#231f20;}.cls-6{stroke-width:0.1px;}.cls-7{stroke-width:0.1px;}</style></defs><title>GHSM-logo</title><line class="cls-1" x1="224.84" y1="52.3" x2="224.84" y2="0.86"/><path d="M126.21,9.34a3.17,3.17,0,0,0-2.31-2V6.78c.72,0,3.15.09,3.7.09s2.71-.09,3.46-.09v.56c-.67.13-1.43.5-1.43,1.18a7.49,7.49,0,0,0,.86,2.4L135.81,23l5-12.1a7.28,7.28,0,0,0,.68-2.31c0-.64-.59-1.07-1.42-1.25V6.78c.66,0,2.28.09,2.79.09s2.39-.09,3.12-.09v.58A3.87,3.87,0,0,0,143.28,10l-7.39,17.44h-1.55L126.21,9.34Z" transform="translate(-0.01 -0.25)"/><path d="M54.45,26.79c1-.22,1.64-.66,1.64-1.75v-16c0-1.05-.63-1.49-1.64-1.76V6.73c.5,0,2.69.09,3.21.09s2.94-.09,3.44-.09V7.3c-1,.22-1.68.66-1.68,1.76v6.67H71.33V9.06c0-1.1-.64-1.54-1.64-1.76V6.73c.5,0,2.77.09,3.39.09s2.75-.09,3.26-.09V7.3c-1,.22-1.69.66-1.69,1.76V25c0,1.05.68,1.48,1.69,1.75v.52l-3.26,0-3.39,0v-.52c1-.22,1.64-.66,1.64-1.75V17.48H59.42V25c0,1.09.67,1.48,1.68,1.75v.52l-3.44,0-3.21,0v-.52Zm25.16,0a3.51,3.51,0,0,0,2.49-2.28L88.68,8.66a17.47,17.47,0,0,0,.61-2h1.84a18.05,18.05,0,0,0,.61,2l7,15.88a3.34,3.34,0,0,0,2.41,2.24v.52l-3.63,0-3.52,0v-.52c1-.25,1.33-.77,1.33-1.27a3.78,3.78,0,0,0-.38-1.39l-1.48-3.37H85.72l-1.35,3.38A4.35,4.35,0,0,0,84,25.45c0,.57.29,1,1.44,1.34v.52l-2.9,0-3,0v-.52Zm13.11-7.7-3.28-7.63-3,7.63Zm-13.11,7.7a3.51,3.51,0,0,0,2.49-2.28L88.68,8.66a17.47,17.47,0,0,0,.61-2h1.84a18.05,18.05,0,0,0,.61,2l7,15.88a3.34,3.34,0,0,0,2.41,2.24v.52l-3.63,0-3.52,0v-.52c1-.25,1.33-.77,1.33-1.27a3.78,3.78,0,0,0-.38-1.39l-1.48-3.37H85.72l-1.35,3.38A4.35,4.35,0,0,0,84,25.45c0,.57.29,1,1.44,1.34v.52l-2.9,0-3,0v-.52Zm13.11-7.7-3.28-7.63-3,7.63Zm52.14,7.7a3.48,3.48,0,0,0,2.49-2.28l6.59-15.85a19,19,0,0,0,.6-2h1.85a19.64,19.64,0,0,0,.6,2l7,15.88a3.37,3.37,0,0,0,2.42,2.24v.52l-3.62,0-3.53,0v-.52c1-.25,1.33-.77,1.33-1.27a3.62,3.62,0,0,0-.39-1.39l-1.47-3.37H151l-1.35,3.38a4.1,4.1,0,0,0-.34,1.31c0,.57.3,1,1.45,1.34v.52l-2.84,0-3,0v-.52ZM158,19.09l-3.27-7.63-3,7.63Zm34.48,7.7c1.23-.22,1.91-.71,1.91-1.84V9.06c0-1.1-.67-1.54-1.86-1.76V6.73c.69,0,3,.09,3.57.09,1,0,3.85-.22,6-.22,7.33,0,11.77,4.09,11.77,10.31,0,6.05-4.62,10.53-12.18,10.53-2.18,0-4.82-.17-5.83-.17-.61,0-2.72.09-3.41.09v-.57Zm5.24-1.05a22.6,22.6,0,0,0,3.21.21c6.15,0,9.36-3.7,9.36-8.86,0-5.36-3.38-9.13-9.13-9.13a25.47,25.47,0,0,0-3.44.22V25.74Z" transform="translate(-0.01 -0.25)"/><path d="M109.36,24.89c0,1.06.67,1.63,1.9,1.9v.57c-.68,0-2.93-.09-3.57-.09s-2.74.09-3.43.09v-.57c1.15-.22,1.82-.8,1.82-1.9V9.11c0-1-.52-1.59-1.82-1.81V6.73c.69,0,2.86.09,3.48.09,1,0,3.86-.16,5-.16,4.93,0,7.67,2,7.67,5.52,0,2.74-2,4.59-5.18,5.36a6.3,6.3,0,0,1,1.42,1.25c.87,1,3.27,4.45,4.24,5.63s2.22,2.52,3.54,2.58v.43a12.84,12.84,0,0,1-2.43.26,5.2,5.2,0,0,1-4.31-2.16c-1.12-1.36-3.08-4.26-4.2-5.69A4.68,4.68,0,0,0,110.31,18c-.31-.05-.61-.1-1-.13v7.07Zm0-8.38a22.93,22.93,0,0,0,2.57.13c3.85,0,5.06-2.22,5.06-4.18,0-2.78-1.85-4.5-5.23-4.5a15.09,15.09,0,0,0-2.4.22v8.33Z" transform="translate(-0.01 -0.25)"/><path d="M174.29,24.89c0,1.06.67,1.63,1.91,1.9v.57c-.69,0-2.93-.09-3.57-.09s-2.75.09-3.44.09v-.57c1.15-.22,1.83-.8,1.83-1.9V9.11c0-1-.53-1.59-1.83-1.81V6.73c.69,0,2.86.09,3.48.09,1,0,3.86-.16,5-.16,4.92,0,7.66,2,7.66,5.52,0,2.74-2,4.59-5.18,5.36a6.21,6.21,0,0,1,1.43,1.25c.87,1,3.27,4.45,4.23,5.63S188,26.94,189.35,27v.43a13,13,0,0,1-2.44.26,5.2,5.2,0,0,1-4.31-2.16c-1.12-1.36-3.07-4.26-4.19-5.69A4.71,4.71,0,0,0,175.24,18c-.31-.05-.6-.1-1-.13v7.07Zm0-8.38a23.07,23.07,0,0,0,2.57.13c3.85,0,5.07-2.22,5.07-4.18,0-2.78-1.86-4.5-5.23-4.5a15.21,15.21,0,0,0-2.41.22v8.33Z" transform="translate(-0.01 -0.25)"/><path class="cls-2" d="M54.45,47.53l1.33,0,1.45,0v-.41c-.69-.15-.9-.53-.87-.81l.58-6.42,3.7,7.6h.72l3.16-7.38.46,6.2a.87.87,0,0,1-.7.81v.41l1.54,0,1.6,0v-.41a.93.93,0,0,1-.71-.83l-.56-7.89a.93.93,0,0,1,.63-1.06v-.41c-.41,0-.79,0-1.06,0s-.57,0-1,0l-3.44,8-3.9-8c-.36,0-.74,0-1,0s-.64,0-1,0v.41a.9.9,0,0,1,.64,1l-.71,7.9a1.16,1.16,0,0,1-.87.84v.41Zm16.69,0,1.66,0h3.13a22.09,22.09,0,0,1,2.6.1l.26-1.87-.43-.1a1.8,1.8,0,0,1-1.81,1H73.69V42.41h2.55a1,1,0,0,1,.9.61h.41c0-.33,0-.87,0-1.05s0-.71,0-1h-.43a1,1,0,0,1-.9.61H73.69v-3.7h2.89a1.44,1.44,0,0,1,1.52,1h.41l0-2.06h-.41a1.4,1.4,0,0,1-.61.13h-6.4v.41a.89.89,0,0,1,.79.81v8.09a.9.9,0,0,1-.79.88v.41Zm11,0,1.66,0c.48,0,1.91.1,3,.1,3.29,0,5.56-2.15,5.56-5.18a5.36,5.36,0,0,0-5.56-5.54c-1,0-2.47.09-3,.09l-1.66,0v.41a.9.9,0,0,1,.79.82v8.08a.9.9,0,0,1-.79.88v.41Zm2.55-9.79a9.5,9.5,0,0,1,1.52-.1,4.44,4.44,0,0,1,4.21,4.71,4.13,4.13,0,0,1-4.3,4.37,8.5,8.5,0,0,1-1.43-.1V37.74Zm11.13,9.79,1.77,0,1.71,0v-.41c-.62-.17-.87-.41-.87-.83V38.16c0-.41.25-.65.87-.82v-.41l-1.71,0-1.77,0v.41c.62.13.85.41.85.82v8.13c0,.42-.23.69-.85.83v.41Zm16-2.26c-.64,1.25-1.94,1.53-3.29,1.53-2.47,0-3.79-2.48-3.79-4.57,0-2.55,1.38-4.58,3.79-4.58a3.23,3.23,0,0,1,3.12,1.54h.41l-.09-1.9a3.65,3.65,0,0,1-.86-.11,12.61,12.61,0,0,0-2.58-.41,5.34,5.34,0,0,0-5.68,5.46c0,3,2,5.46,5.68,5.46a12.69,12.69,0,0,0,2.74-.41,5.15,5.15,0,0,1,.86-.12l.1-1.89Zm2.58,2.26c.43,0,1.25,0,1.47,0s.95,0,1.31,0v-.41c-.47-.17-.64-.4-.61-.61s.14-.45.18-.56l.6-1.43h3.86L121.8,46a3.3,3.3,0,0,1,.18.56c0,.21,0,.44-.49.61v.41l1.68,0c.25,0,1.22,0,1.63,0v-.41A1.46,1.46,0,0,1,123.71,46l-3.06-7.93c-.13-.35-.36-1.27-.36-1.27h-1.12a11.35,11.35,0,0,1-.36,1.27L115.52,46c-.23.56-.43.92-1.09,1.09v.41Zm3.34-4,1.61-3.87,1.5,3.87Zm10,4,1.67,0h3.12a22.09,22.09,0,0,1,2.6.1l.26-2.2-.41-.1a1.83,1.83,0,0,1-1.82,1.3h-2.87V38.16c0-.41.25-.65.88-.82v-.41l-1.75,0-1.74,0v.41c.62.13.85.41.85.82v8.08a.9.9,0,0,1-.79.88v.41ZM143,47.18a11.37,11.37,0,0,0,3,.51c2.15,0,3.72-1.15,3.72-3.16a2.49,2.49,0,0,0-1.24-2.22c-1-.57-2.23-1-3.19-1.55a1.67,1.67,0,0,1-.94-1.57c0-.94.84-1.65,2.06-1.65A2.62,2.62,0,0,1,149,39.09h.42L149.3,37c-1,0-1.93-.18-2.75-.18-2.05,0-3.88.9-3.88,3a2.74,2.74,0,0,0,1.68,2.62,27.73,27.73,0,0,1,3.11,1.48,1.48,1.48,0,0,1,.59,1.33c0,1.16-.89,1.6-2.12,1.6a3.65,3.65,0,0,1-1.76-.44,2.44,2.44,0,0,1-.83-1.17h-.43l.07,2Zm19-1.91c-.64,1.25-2,1.53-3.29,1.53-2.47,0-3.79-2.48-3.79-4.57,0-2.55,1.38-4.58,3.79-4.58a3.23,3.23,0,0,1,3.12,1.54h.41l-.1-1.9a3.64,3.64,0,0,1-.85-.11,12.61,12.61,0,0,0-2.58-.41A5.34,5.34,0,0,0,153,42.23c0,3,2,5.46,5.68,5.46a12.69,12.69,0,0,0,2.74-.41,5.15,5.15,0,0,1,.86-.12l.1-1.89Zm3.37,2.26,1.55,0,1.63,0v-.41a.9.9,0,0,1-.71-.83v-3.9h5.68v3.9a.89.89,0,0,1-.7.83v.41l1.62,0,1.54,0v-.41a.92.92,0,0,1-.7-.83V38.16a.92.92,0,0,1,.7-.82v-.41l-1.54,0-1.62,0v.41a.88.88,0,0,1,.7.82v3.3h-5.68v-3.3a.91.91,0,0,1,.71-.82v-.41l-1.63,0-1.55,0v.41a.92.92,0,0,1,.71.82v8.13a.92.92,0,0,1-.71.83v.41Zm19.17.16a5.46,5.46,0,0,0,0-10.92,5.3,5.3,0,0,0-5.38,5.49,5.24,5.24,0,0,0,5.38,5.43Zm0-.89c-2.45,0-3.49-2.17-3.49-4.54s1-4.61,3.49-4.61S188,39.89,188,42.26s-1,4.54-3.47,4.54Zm13.41.89a5.46,5.46,0,1,0-5.38-5.43,5.25,5.25,0,0,0,5.38,5.43Zm0-.89c-2.45,0-3.49-2.17-3.49-4.54s1-4.61,3.49-4.61,3.47,2.24,3.47,4.61-1,4.54-3.47,4.54Zm8.28.73,1.66,0H211a22.09,22.09,0,0,1,2.6.1l.26-2.2-.41-.1a1.85,1.85,0,0,1-1.83,1.3h-2.86V38.16c0-.41.25-.65.87-.82v-.41l-1.74,0-1.75,0v.41c.63.13.86.41.86.82v8.08a.9.9,0,0,1-.79.88v.41Z" transform="translate(-0.01 -0.25)"/><path class="cls-2" d="M22.2.43H.05L0,18.15C0,39.86,21.78,53.7,22,53.84l.07,0a.9.9,0,0,0,.2-.1C26,51.36,44.42,38.27,44.42,18.26V.47S22.2.43,22.2.43Zm22.1,15.7H.45V13.57H44.3v2.56Z" transform="translate(-0.01 -0.25)"/><path class="cls-3" d="M9.52,18.18s-.06.27-.06.27c0,.17-.14.29-.31.26l-.63-.11a1.09,1.09,0,0,0-.68-.05,1.82,1.82,0,0,0-.36.31l.1.05a.74.74,0,0,1,.55.54,1.26,1.26,0,0,0,.31.68l.11.16a.4.4,0,0,1,.07.19.24.24,0,0,1-.06.15L8.27,21l-.17.18s-.14.34-.22.54c.07.12.14.23.22.24a1.52,1.52,0,0,1,.71,0l.41.05H9.3l.16,0a.83.83,0,0,1,.64.1l.2.43a1.27,1.27,0,0,1,.07.37,2.81,2.81,0,0,1,0,.44l0,.24a.44.44,0,0,1-.06.16A3.93,3.93,0,0,1,8.68,25l0,0a.56.56,0,0,0,0,.07s0,0,0,0a1,1,0,0,0,.49,0l.17,0a2.7,2.7,0,0,0,.79-.2l.85-.23a.26.26,0,0,1,.32.17,1.48,1.48,0,0,0,.52.64s0,0,.16-.14a.78.78,0,0,1,.85-.22l.09.05a1.32,1.32,0,0,1,.43.76,1.11,1.11,0,0,0,.21.45.38.38,0,0,1,.09.18v.09a.52.52,0,0,1-.37.48l-.05,0s0,0-.08,0l-.7.12a1.39,1.39,0,0,0-.59.13s0,.06.08.08a3.72,3.72,0,0,0,1.17.31l.24,0,.54,0,.88,0a.29.29,0,0,1,.24.17.34.34,0,0,1-.05.32l-.15.23a.28.28,0,0,1-.09.1l-1.41,1-.84.31-1.1.43-.07,0A1.57,1.57,0,0,1,9.91,30c-.25-.21-.46-.38-.71-.36a.81.81,0,0,0-.62.24.39.39,0,0,0-.09.29s0,.07,0,.11l.07,0a.57.57,0,0,1,.44.54,2.91,2.91,0,0,1-.43,1.26,2.51,2.51,0,0,0-.35,1,.15.15,0,0,0,0,.07c0,.07,0,.14.06.15l0,0a.15.15,0,0,0,.11,0l.08-.13a.75.75,0,0,1,.54-.45h.1c.57.07.89,0,1.09-.21a.32.32,0,0,1,.18-.1.6.6,0,0,1,.5.15.62.62,0,0,1,.23.46v.15c.34-.06.58-.38.86-.86l.12-.18a.38.38,0,0,1,.22-.15l.23-.07a1.06,1.06,0,0,1,1,0,.3.3,0,0,1,.14.19,1.13,1.13,0,0,1,0,.25,1.63,1.63,0,0,1-.24.77l-.1.26a2.61,2.61,0,0,0,1.33-1.1L15,32a.73.73,0,0,1,.68-.52h.1c.18.06.27,0,.53-.37l.43-.48c.06-.06.09-.06.18-.06h.18c.08,0,.16,0,.22.05a.23.23,0,0,1,.09.18v.44l.43-.16.6-.37a.32.32,0,0,1,.27,0l2.2.57a.72.72,0,0,1,.53.73,1.84,1.84,0,0,1,0,.26c0,.09,0,.16,0,.21a.22.22,0,0,0,0,.13.33.33,0,0,1,.1.23.27.27,0,0,1,0,.12c-.09.21-.32.46-.9.46l-1.12.06a3.4,3.4,0,0,0-2.42.63l-.6.6a.37.37,0,0,1-.22.1,2,2,0,0,0-1.11.45,3,3,0,0,1-1.13.51,1.83,1.83,0,0,1-1,.17,1.24,1.24,0,0,0-.53,0,2.69,2.69,0,0,0,1.31.64,2.43,2.43,0,0,0,.28.05.78.78,0,0,1,.76.38.36.36,0,0,1,0,.11c0,.3.08.41.2.46l0,0a.56.56,0,0,1,.7,0l.53.52.58.59a.24.24,0,0,1,0,.33.92.92,0,0,1-1.07.34l-.26,0s-.33,0-.33,0A1.48,1.48,0,0,1,13.7,39l.05.06-.43-.37a1.76,1.76,0,0,0-1.11-.6c-.45.13-.65.27-.69.5v0l.11.12.19.21a.22.22,0,0,1,.08.18s0,0,0,.06a.35.35,0,0,1-.15.21,1.45,1.45,0,0,0-.79,1.06,1.1,1.1,0,0,0,0,.18s0,0,0,.06l.14,0a.79.79,0,0,1,.71,0,.31.31,0,0,1,.16.25l0,.33c0,.38.06.55.18.65l.17-.08a1,1,0,0,1,1.08,0c.08,0,.2,0,.45-.16l.42-.2c.05,0,.05,0,.1,0,.78,0,1.09.67,1.3,1.12h0l0,0c.34.26.63.45.88.38a.29.29,0,0,0,0-.1c0-.08,0-.16,0-.27a1.78,1.78,0,0,1,0-.35.78.78,0,0,1,.49-.75s.77-.07.77-.07l.46,0h.1c.67.06,1.21.07,1.44-.4,0,0,.49-.83.56-1s.11-.55.11-.55a.33.33,0,0,1,.22-.25,1.07,1.07,0,0,1,.69.09l.17.05a3.81,3.81,0,0,1-.2-1.15,4,4,0,0,1,0-.6,2.78,2.78,0,0,1,.7-1.31.31.31,0,0,1,.35-.08l.15.06a.3.3,0,0,1,.19.23l.14.72a5.13,5.13,0,0,0,.35,1.32.18.18,0,0,1,0,.17l-.26,1.07-.23.85a2.74,2.74,0,0,1-1.48,1.81s0,.07,0,.1a.87.87,0,0,0,.29,0H22a3.49,3.49,0,0,0,2.15-1.11.32.32,0,0,1,.32-.09c.16,0,.29,0,.5-.14a1,1,0,0,1,1.11-.09,1,1,0,0,0,.73.09c.43,0,1.16-.09,1.36.75v.14l0,.39c.05.4.14,1.15-.66,1.36-.06,0-.07,0-.13,0l-.82-.31c-.64-.31-.93-.4-1.26,0-.08.08-.17.19-.13.28s.39.67,0,1a.27.27,0,0,0,.07-.08l0,.08c-.21.35-.35.62-.26.85,0,0,.05.07.33,0a1.27,1.27,0,0,1,1,.11l.4.12a1,1,0,0,1,.18.06l.12.1a1.7,1.7,0,0,0,.79.42l0-.06.17-.35c.05,0,.55-.29.55-.29.33-.12.36-.16.36-.28a2,2,0,0,1,1-1.33.38.38,0,0,1,.19,0,2.09,2.09,0,0,0,.7-.28l0,0-.14-.14a.59.59,0,0,1-.11-.19.82.82,0,0,1,0-.22,1.74,1.74,0,0,1,.36-.94,1.17,1.17,0,0,0,.26-.57.55.55,0,0,0-.11-.29.19.19,0,0,1-.05-.1l-.09-.52c-.05-.34-.08-.63-.32-.81l-.57-.3-.62-.29a.28.28,0,0,1-.15-.28c0-.28.18-.44.53-.49h.08a1.56,1.56,0,0,1,1,.12c.27.1.37.1.44.06a1.59,1.59,0,0,0-.47-.67,3.45,3.45,0,0,0-1.27-.47,3,3,0,0,1-1.94-1,.3.3,0,0,1-.06-.18.33.33,0,0,1,.1-.23l.09-.09a.31.31,0,0,1,.29-.09,2.67,2.67,0,0,0,2.35-.5,3.29,3.29,0,0,1,1.47-1.24,2.19,2.19,0,0,0,.59-1.85,1.7,1.7,0,0,1,.5-1.06l.63-.31a.73.73,0,0,0,.32-.14,2.22,2.22,0,0,0-1.21-.3.41.41,0,0,1-.19,0,.47.47,0,0,1-.26-.36s0,0,0-.06a.71.71,0,0,1,.26-.47l0-.05a.6.6,0,0,0,.08-.08l.7-.4c.91-.48,1.47-.84,1.47-1.59v0l0-.07a1,1,0,0,0-.33.19l-.48.33a4.85,4.85,0,0,1-1.44.46A4.17,4.17,0,0,0,31,29a.34.34,0,0,1-.17.05.42.42,0,0,1-.4-.26.41.41,0,0,1,0-.19.62.62,0,0,1,.15-.39,2,2,0,0,1,.61-.47c.26-.14.43-.24.51-.44l.09-.25A1.58,1.58,0,0,1,32.57,26l.45-.23a1.71,1.71,0,0,0,.17-.11l-.06,0a2.06,2.06,0,0,0-1.9.74.33.33,0,0,1-.1.06l-.29.12a4,4,0,0,0-1.36.79.42.42,0,0,1-.14.09.49.49,0,0,1-.45-.08.48.48,0,0,1-.2-.4c-.12-1.2.83-2.06,1.59-2.76l.19-.17.13-.07.47-.25a1.4,1.4,0,0,1,1.4-.26,1.47,1.47,0,0,0,1.18.28,1.37,1.37,0,0,0,.59-.56,2.48,2.48,0,0,1,.7-.71,1.24,1.24,0,0,1,.82,0,.93.93,0,0,0,.31.07l0-.07a.28.28,0,0,0,0-.09,1.25,1.25,0,0,0-.37-.71l-.28-.37a.25.25,0,0,1,0-.16.51.51,0,0,1,0-.13,2,2,0,0,0,.14-.71,2,2,0,0,0-.68-1.51,1.52,1.52,0,0,0-.71-.18c0,.06.09.15.09.15l.29.61v.21c0,1.33-1.14,1.9-2.07,2.36l-.8.44c-1.87.94-4.34,2.45-4.48,4.92a5.17,5.17,0,0,0,1.53,3.49l.05.06.34.54a3.64,3.64,0,0,1,.81,2,2,2,0,0,1-.08.58,1.5,1.5,0,0,1-1.5.76c-1.84-.12-2.85-2-3.58-3.34l-.11-.21-.15-.33a4,4,0,0,1-.47-1.41.33.33,0,0,1,.09-.26.49.49,0,0,1,.67,0s.37.55.37.55a.78.78,0,0,0,.1.19.9.9,0,0,0,.08-.28,3,3,0,0,0-.26-1l-.05-.11a3,3,0,0,0-.5-.53,2.69,2.69,0,0,1-.73-.87.23.23,0,0,1,0-.11v-.05a.62.62,0,0,1,.54-.59l.09,0a5.5,5.5,0,0,1-.21-1.47,6.56,6.56,0,0,1,0-.76h0s0,0,0,0l0,0,.42-.44c.13-.09.14-.1.14-.13a6.38,6.38,0,0,1-.19-1.61c0-.21,0-.43,0-.64,0-.05.15-.53.15-.53a1.74,1.74,0,0,0,.14-.53.42.42,0,0,0,0-.16.81.81,0,0,1-.35-.65s0-.16,0-.17h0a.15.15,0,0,0,.09,0,4.53,4.53,0,0,1-2-.57L22,18.23a.87.87,0,0,0-.55.11l-.36.13-.38.07a1.52,1.52,0,0,0-1,.36c-.13.15-.13.33-.12.67v.2a.43.43,0,0,1,0,.11.49.49,0,0,1-.28.31.64.64,0,0,1-.51-.08l-.05,0a1.27,1.27,0,0,1-.64-1.49c0-.1-.06-.18-.1-.22a.76.76,0,0,0-.64-.08c-.18.06-.27.25-.4.55l-.08.17s0,0,0,.08a1,1,0,0,0,.14.54,4.44,4.44,0,0,0,1,.68l.94.6a.23.23,0,0,1,.1.15.77.77,0,0,1,.05.29,1.42,1.42,0,0,1-.33.83s0,0,0,0a.65.65,0,0,1,.31.5.41.41,0,0,1,0,.11.32.32,0,0,1-.24.26,1.73,1.73,0,0,1-1.55-.33L17,22.37c-.09-.15-.14-.21-.2-.23a1.42,1.42,0,0,0-.13.25l-.13.27s0,.23,0,.23a1,1,0,0,1-.29.74.33.33,0,0,1-.25.08l-.26,0a12,12,0,0,1-3.45-1.88A6.72,6.72,0,0,1,11,20.36L10.71,20a.31.31,0,0,1-.05-.1l-.11-.37c-.2-.72-.37-1.2-.89-1.36l-.14,0Zm.76,4.24ZM8,22l.13,0L8,22Zm10.7.39c.05-.07.08-.08.08-.12h0l-.08.12Zm5.76,4s0,0,0,.06,0-.07,0-.1l0,0Zm-7.07,4.93h0s0,0,0,0l0,0Zm0,.06v-.06h0v.06Zm-6.32,1.88h0Zm10.58,6.28a.23.23,0,0,0,0,.11.5.5,0,0,1,0-.12ZM22,42.58h0Z" transform="translate(-0.01 -0.25)"/><path class="cls-4" d="M.27,18.14C.27,13,.28,7.22.27.48H44.46s0,2.64,0,17.77c0,22.38-22.27,35.5-22.27,35.5S.27,40,.27,18.14Z" transform="translate(-0.01 -0.25)"/><path class="cls-5" d="M31.12,43.9h0c-.15-.12-.33-.36-.42-.44-.18-.78,1-1.3.43-2.14-.15-.49,0-1.12-.52-1.5a11.56,11.56,0,0,0-1.22-.61c0-.2.27-.14.41-.2.64-.17,1.21.61,1.68,0,.05-.44-.35-.81-.64-1.1-.95-.66-2.4-.4-3.12-1.41l.08-.09a3.05,3.05,0,0,0,2.64-.58,2.87,2.87,0,0,1,1.44-1.21,2.5,2.5,0,0,0,.72-2.12,1.37,1.37,0,0,1,.41-.83c.35-.32,1.24-.21,1.07-.87a2.87,2.87,0,0,0-1.59-.44c-.26-.14.06-.34.14-.46.93-.61,2.37-1,2.32-2.34-.09-.14-.06-.38-.29-.4-.41.05-.64.43-1,.6-.86.49-2,.41-2.8.93-.17,0-.12-.23-.06-.29.32-.43,1-.46,1.19-1s.26-1,.75-1.19c.29-.23.75-.23.92-.58,0-.2-.26-.31-.43-.37a2.3,2.3,0,0,0-2.23.81,5.08,5.08,0,0,0-1.76,1,.18.18,0,0,1-.23-.17c-.12-1.16.92-2,1.68-2.69.55-.15,1-.81,1.64-.52a1.79,1.79,0,0,0,1.42.29c.64-.24.78-1,1.36-1.3.43-.15,1,.49,1.3-.12s-.37-1-.66-1.48a2.35,2.35,0,0,0-.64-2.57,1.55,1.55,0,0,0-1.18-.23c-.32.41.28.67.31,1.07.15,1.65-1.65,2-2.71,2.72-2,1-4.49,2.57-4.63,5.17A5.42,5.42,0,0,0,28.52,31c.52.9,1.36,1.74,1,2.87-.2.46-.75.52-1.19.52C26.64,34.23,25.68,32.29,25,31a5.25,5.25,0,0,1-.58-1.61.18.18,0,0,1,.26,0c.32.28.29,1,.84.89.43-.61.12-1.33-.11-1.94s-1-.84-1.25-1.41c0-.44.61-.18.64-.61a5.34,5.34,0,0,1-.17-2.23c.11-.32.57-.29.57-.69A7.17,7.17,0,0,1,25,21.13c.09-.46.46-.95.2-1.44-.52-.15-.08-.78-.58-.93a6.92,6.92,0,0,1-2.54-.84c-.43-.11-.75.15-1.1.23-.55.12-1.13.12-1.5.53s-.2.66-.2,1.09c-.09.26-.32,0-.44,0a.93.93,0,0,1-.43-1.09.52.52,0,0,0-.2-.55,1.12,1.12,0,0,0-1-.15c-.4.15-.52.61-.69,1a1.48,1.48,0,0,0,.17.86,18.42,18.42,0,0,0,2,1.36,1.12,1.12,0,0,1-.35,1c0,.32.43.32.37.61a1.4,1.4,0,0,1-1.27-.26c-.23-.2-.29-.64-.66-.69s-.41.46-.55.69,0,.7-.26.9l-.26,0a12,12,0,0,1-3.3-1.82A8.79,8.79,0,0,1,11,19.77c-.23-.72-.35-1.73-1.27-2-.21,0-.47.06-.49.29l-.06.29c-.47,0-.93-.32-1.42-.15a2,2,0,0,0-.61.55c0,.52.61.32.7.72a1.8,1.8,0,0,0,.46,1c-.12.2-.35.32-.46.52l-.29.72c.11.23.26.52.55.55.4-.17.75.12,1.18.06.26,0,.7-.2.72.23a1.91,1.91,0,0,1,0,1,3.59,3.59,0,0,1-1.42,1.22.5.5,0,0,0-.12.55c.21.29.67.17,1,.14.6,0,1.06-.37,1.64-.43a1.82,1.82,0,0,0,.67.78c.46.11.58-.52,1-.35s.26.84.61,1.18c0,.21-.18.21-.29.3-.49.17-1.19,0-1.56.4-.06.23.14.43.31.52a5.23,5.23,0,0,0,1.51.38,9.21,9.21,0,0,1,1.39,0l-.15.23-1.42.95a17.82,17.82,0,0,0-1.9.73c-.9.23-1.28-.9-2.08-.84a1.13,1.13,0,0,0-.81.31.84.84,0,0,0-.18.78c.12.27.49.15.49.44,0,.81-.72,1.39-.78,2.23a.47.47,0,0,0,.26.54.44.44,0,0,0,.49-.08c.18-.18.18-.44.47-.49a1.53,1.53,0,0,0,1.35-.32.32.32,0,0,1,.35.29c0,.2,0,.43.2.52.73,0,1.08-.72,1.39-1.25.32,0,.67-.29,1-.08.11.49-.29.84-.38,1.3a.43.43,0,0,0,.32.26c.87-.12,1.36-.93,1.88-1.56.08-.18.17-.41.43-.41.67.2.84-.6,1.24-.89h.18c.06.2-.09.34,0,.55.29.31.61,0,.89-.09l.61-.38c.72.23,1.48.41,2.23.58.6.23,0,.87.37,1.25-.08.2-.34.26-.6.26-1.28.17-2.75-.18-3.76.78l-.61.6c-.95,0-1.44.84-2.31,1-.58.4-1.48-.18-1.85.49a2.31,2.31,0,0,0,1.65,1c.26.12.69,0,.83.26s.09.64.44.75.4-.29.63-.09c.32.44.78.64,1.05,1-.21.37-.7.14-1.05.14l-.05,0c-.52.06-1.19.32-1.59-.17s-1-1-1.77-1c-.43.11-.89.29-1,.78-.06.29.23.4.35.58a1.55,1.55,0,0,0-.9,1.59c.06.14.12.31.32.31s.46-.22.72-.08c.06.43-.06,1.1.46,1.3.41-.06.7-.49,1.13-.17s.78-.21,1.16-.32c.61,0,.84.58,1,1,.37.29.89.75,1.41.46.35-.49-.31-1.13.35-1.44a11.27,11.27,0,0,1,1.16-.06c.63.06,1.42.11,1.76-.58l.58-1,.12-.61c.37-.11.92.49,1.09-.09a3.7,3.7,0,0,1-.17-1.79,2.58,2.58,0,0,1,.61-1.13l.14.06a10.5,10.5,0,0,0,.52,2.11c-.06.67-.4,1.24-.49,1.91a2.41,2.41,0,0,1-1.3,1.56.46.46,0,0,0-.17.52c.17.32.6.15.92.2a3.81,3.81,0,0,0,2.34-1.21c.64.17,1-.61,1.54-.26s1.7-.35,1.93.64c-.08.46.35,1.3-.4,1.5-.75-.12-1.62-1.1-2.37-.23a.54.54,0,0,0-.18.63c.12.21.27.47.06.64-.2.35-.49.78-.32,1.21a.6.6,0,0,0,.7.21c.43-.18.84.2,1.27.23a1.9,1.9,0,0,0,1.24.6c.21-.11.18-.37.32-.54.32-.26,1-.21,1-.78a1.7,1.7,0,0,1,.83-1,1.74,1.74,0,0,0,1.16-.59Z" transform="translate(-0.01 -0.25)"/><path class="cls-6" d="M31.12,43.9h0c-.15-.12-.33-.36-.42-.44-.18-.78,1-1.3.43-2.14-.15-.49,0-1.12-.52-1.5a11.56,11.56,0,0,0-1.22-.61c0-.2.27-.14.41-.2.64-.17,1.21.61,1.68,0,.05-.44-.35-.81-.64-1.1-.95-.66-2.4-.4-3.12-1.41l.08-.09a3.05,3.05,0,0,0,2.64-.58,2.87,2.87,0,0,1,1.44-1.21,2.5,2.5,0,0,0,.72-2.12,1.37,1.37,0,0,1,.41-.83c.35-.32,1.24-.21,1.07-.87a2.87,2.87,0,0,0-1.59-.44c-.26-.14.06-.34.14-.46.93-.61,2.37-1,2.32-2.34-.09-.14-.06-.38-.29-.4-.41.05-.64.43-1,.6-.86.49-2,.41-2.8.93-.17,0-.12-.23-.06-.29.32-.43,1-.46,1.19-1s.26-1,.75-1.19c.29-.23.75-.23.92-.58,0-.2-.26-.31-.43-.37a2.3,2.3,0,0,0-2.23.81,5.08,5.08,0,0,0-1.76,1,.18.18,0,0,1-.23-.17c-.12-1.16.92-2,1.68-2.69.55-.15,1-.81,1.64-.52a1.79,1.79,0,0,0,1.42.29c.64-.24.78-1,1.36-1.3.43-.15,1,.49,1.3-.12s-.37-1-.66-1.48a2.35,2.35,0,0,0-.64-2.57,1.55,1.55,0,0,0-1.18-.23c-.32.41.28.67.31,1.07.15,1.65-1.65,2-2.71,2.72-2,1-4.49,2.57-4.63,5.17A5.42,5.42,0,0,0,28.52,31c.52.9,1.36,1.74,1,2.87-.2.46-.75.52-1.19.52C26.64,34.23,25.68,32.29,25,31a5.25,5.25,0,0,1-.58-1.61.18.18,0,0,1,.26,0c.32.28.29,1,.84.89.43-.61.12-1.33-.11-1.94s-1-.84-1.25-1.41c0-.44.61-.18.64-.61a5.34,5.34,0,0,1-.17-2.23c.11-.32.57-.29.57-.69A7.17,7.17,0,0,1,25,21.13c.09-.46.46-.95.2-1.44-.52-.15-.08-.78-.58-.93a6.92,6.92,0,0,1-2.54-.84c-.43-.11-.75.15-1.1.23-.55.12-1.13.12-1.5.53s-.2.66-.2,1.09c-.09.26-.32,0-.44,0a.93.93,0,0,1-.43-1.09.52.52,0,0,0-.2-.55,1.12,1.12,0,0,0-1-.15c-.4.15-.52.61-.69,1a1.48,1.48,0,0,0,.17.86,18.42,18.42,0,0,0,2,1.36,1.12,1.12,0,0,1-.35,1c0,.32.43.32.37.61a1.4,1.4,0,0,1-1.27-.26c-.23-.2-.29-.64-.66-.69s-.41.46-.55.69,0,.7-.26.9l-.26,0a12,12,0,0,1-3.3-1.82A8.79,8.79,0,0,1,11,19.77c-.23-.72-.35-1.73-1.27-2-.21,0-.47.06-.49.29l-.06.29c-.47,0-.93-.32-1.42-.15a2,2,0,0,0-.61.55c0,.52.61.32.7.72a1.8,1.8,0,0,0,.46,1c-.12.2-.35.32-.46.52l-.29.72c.11.23.26.52.55.55.4-.17.75.12,1.18.06.26,0,.7-.2.72.23a1.91,1.91,0,0,1,0,1,3.59,3.59,0,0,1-1.42,1.22.5.5,0,0,0-.12.55c.21.29.67.17,1,.14.6,0,1.06-.37,1.64-.43a1.82,1.82,0,0,0,.67.78c.46.11.58-.52,1-.35s.26.84.61,1.18c0,.21-.18.21-.29.3-.49.17-1.19,0-1.56.4-.06.23.14.43.31.52a5.23,5.23,0,0,0,1.51.38,9.21,9.21,0,0,1,1.39,0l-.15.23-1.42.95a17.82,17.82,0,0,0-1.9.73c-.9.23-1.28-.9-2.08-.84a1.13,1.13,0,0,0-.81.31.84.84,0,0,0-.18.78c.12.27.49.15.49.44,0,.81-.72,1.39-.78,2.23a.47.47,0,0,0,.26.54.44.44,0,0,0,.49-.08c.18-.18.18-.44.47-.49a1.53,1.53,0,0,0,1.35-.32.32.32,0,0,1,.35.29c0,.2,0,.43.2.52.73,0,1.08-.72,1.39-1.25.32,0,.67-.29,1-.08.11.49-.29.84-.38,1.3a.43.43,0,0,0,.32.26c.87-.12,1.36-.93,1.88-1.56.08-.18.17-.41.43-.41.67.2.84-.6,1.24-.89h.18c.06.2-.09.34,0,.55.29.31.61,0,.89-.09l.61-.38c.72.23,1.48.41,2.23.58.6.23,0,.87.37,1.25-.08.2-.34.26-.6.26-1.28.17-2.75-.18-3.76.78l-.61.6c-.95,0-1.44.84-2.31,1-.58.4-1.48-.18-1.85.49a2.31,2.31,0,0,0,1.65,1c.26.12.69,0,.83.26s.09.64.44.75.4-.29.63-.09c.32.44.78.64,1.05,1-.21.37-.7.14-1.05.14l-.05,0c-.52.06-1.19.32-1.59-.17s-1-1-1.77-1c-.43.11-.89.29-1,.78-.06.29.23.4.35.58a1.55,1.55,0,0,0-.9,1.59c.06.14.12.31.32.31s.46-.22.72-.08c.06.43-.06,1.1.46,1.3.41-.06.7-.49,1.13-.17s.78-.21,1.16-.32c.61,0,.84.58,1,1,.37.29.89.75,1.41.46.35-.49-.31-1.13.35-1.44a11.27,11.27,0,0,1,1.16-.06c.63.06,1.42.11,1.76-.58l.58-1,.12-.61c.37-.11.92.49,1.09-.09a3.7,3.7,0,0,1-.17-1.79,2.58,2.58,0,0,1,.61-1.13l.14.06a10.5,10.5,0,0,0,.52,2.11c-.06.67-.4,1.24-.49,1.91a2.41,2.41,0,0,1-1.3,1.56.46.46,0,0,0-.17.52c.17.32.6.15.92.2a3.81,3.81,0,0,0,2.34-1.21c.64.17,1-.61,1.54-.26s1.7-.35,1.93.64c-.08.46.35,1.3-.4,1.5-.75-.12-1.62-1.1-2.37-.23a.54.54,0,0,0-.18.63c.12.21.27.47.06.64-.2.35-.49.78-.32,1.21a.6.6,0,0,0,.7.21c.43-.18.84.2,1.27.23a1.9,1.9,0,0,0,1.24.6c.21-.11.18-.37.32-.54.32-.26,1-.21,1-.78a1.7,1.7,0,0,1,.83-1,1.74,1.74,0,0,0,1.16-.59Z" transform="translate(-0.01 -0.25)"/><path class="cls-3" d="M17.88,18.59a1.2,1.2,0,0,0,.17,1c.61.66,1.53.87,1.91,1.65l-.23,0a19.69,19.69,0,0,0-2.14-1.36.94.94,0,0,1-.44-.9c.06-.26.15-.55.44-.6a.22.22,0,0,1,.29.2Z" transform="translate(-0.01 -0.25)"/><path class="cls-3" d="M24.07,19.28c.11.18,0,.55.37.58a.18.18,0,0,1,.17.17,4.08,4.08,0,0,1-.17.9c-.09.23-.4.32-.4.64,0,.17.26.26.28.43l0,1.16c-.73.23-.38,1.12-.44,1.59a8.38,8.38,0,0,0,0,1.12c-.17.09-.49.06-.57.32a3,3,0,0,0,.34,1.13c.26.38.81.46.84.95-.37,0-.72-.23-1.07-.34a3.62,3.62,0,0,1-1.24-1.39.17.17,0,0,0-.29,0c-.06.35-.09.84-.41,1.07-.37-.23-.34-1.16-.95-.87A8.42,8.42,0,0,1,18.72,30c-.18.06-.21.32-.44.26a4.57,4.57,0,0,0,.29-3.18c-.09-.2-.29-.15-.43-.06s-.26.4-.52.32c-.2-.32.2-.81-.26-1-.41.08-.64.43-1,.6a6,6,0,0,1-2.94.76.83.83,0,0,1-.5-.15,3.62,3.62,0,0,1,1-.49c1.21-.72,2-2.05,3-3-.08-.43-.46-.95-.05-1.36.31,0,.43.35.69.44A1.73,1.73,0,0,0,19,23.3a1,1,0,0,0,.72-.84.3.3,0,0,0-.2-.32c-.12,0-.26,0-.32-.11a.38.38,0,0,1,.32-.38c.49,0,1,1.07,1.33.2.2-.69-.44-1.21-.93-1.64a.52.52,0,0,1-.14-.49c.37-.24-.09-.55.2-.81.49-.38,1.24-.15,1.76-.52.9,0,1.54.69,2.35.89Z" transform="translate(-0.01 -0.25)"/><path class="cls-3" d="M10.3,19a.64.64,0,0,1,0,.41c-.11.11-.26,0-.34-.06a.53.53,0,0,1-.21-.52c0-.61.55-.06.55.17Z" transform="translate(-0.01 -0.25)"/><path class="cls-3" d="M9.9,19.89a6.36,6.36,0,0,1,1.91,1.82,10.86,10.86,0,0,0,4.07,2.34c.06.23-.11.44-.29.61-.49.52-.89,1.13-1.41,1.59a.39.39,0,0,1-.32,0c-.52-.49-.46-1.5-1.36-1.53-.29,0-.52.35-.81.14s.09-.75-.35-.86c-.49.2-.89.75-1.47.66.38-.63,1-1.33.69-2.17a1.3,1.3,0,0,0-.66-.92c-.35,0-.55.37-.9.2-.14-.32-.78-.17-.52-.58s1.07-.4.73-1c-.24-.32-.79-.15-.84-.58.05-.26-.18-.61,0-.78.69-.06,1.12.64,1.53,1.07Z" transform="translate(-0.01 -0.25)"/><path class="cls-3" d="M35.28,20.24c.09.46-.34.75-.23,1.18.12.23.49.29.47.55-1.1,0-1.31,1.48-2.41,1.45-.46-.09-.8-.58-1.35-.35-1.42.66-3,1.65-3.33,3.33a2,2,0,0,0,.35,1.87.4.4,0,0,0,.37,0c.29-.52.53-1.21,1.22-1.35a7.29,7.29,0,0,0,1.18-.52c.06,0,.15-.06.18.05-.18.49-.41,1.1-1,1.28A2.09,2.09,0,0,0,29.93,29a1,1,0,0,0,.15.81c.2.17.43-.06.61-.18a3.82,3.82,0,0,1,3-1.1c.06.09-.08.26-.2.29a3.49,3.49,0,0,0-2.17,2.06.44.44,0,0,0,.23.31c.47-.05.84-.34,1.33-.28.12.31-.37.31-.49.57-.89.78,0,2.55-1.5,2.81-.43.11-.38.63-.67.89a2.26,2.26,0,0,1-2.11.73c-.58.06-1.07-.78-1.56-.23.06.58.52.89.81,1.38a6.06,6.06,0,0,0,2.66,1,.41.41,0,0,1,.26.24c0,.2-.26.14-.43.11A3.51,3.51,0,0,1,28,38.39c-.09,0-.18.09-.21.18.09.63.81.87,1.25,1.21s1,.15,1.21.67v.66a1.52,1.52,0,0,1,.23,1.13,1.48,1.48,0,0,0-.37,1.68c-.18.14-.44,0-.61.11-.2.44-.75.49-.9.93a.74.74,0,0,1-.57.72c-.29,0-.5.12-.76.06s.09-.52-.23-.64-.55.55-1,.32c-.2-.11-.41-.2-.49-.41s.23-.34.4-.46c1-.11,2.2-.29,2.55-1.33.05-.49-.18-.89-.09-1.33a1.38,1.38,0,0,0-1.24-1c-.52-.14-1.1.05-1.48-.32-.14-.12-.31-.23-.49-.14s-.2.23-.38.14-.34-.35-.52-.14a2.59,2.59,0,0,1-1.7,1.59c-.12-.21.11-.44.2-.67a7.57,7.57,0,0,0,.58-1.76,1.24,1.24,0,0,0,.32-1.16,5.38,5.38,0,0,1-.47-3.18,3.72,3.72,0,0,0-1.09-3.47c-.55-.32-1-.87-1.68-1-.44-.15-1.07,0-1.3-.41.06-.46.55-.72.75-1.13l.75-1.15c.32-.06.23.4.55.37.61,0,.58-1,1.22-.69.28.41.75.55,1,.9a10.91,10.91,0,0,0,2.14,4.57,3.44,3.44,0,0,0,3.58,1.55c.38-.31.9-.66,1-1.21.38-2.63-3-3.93-2.72-6.53s2.75-3.79,4.75-4.74c1.1-.58,2.48-1.36,2.57-2.78a.58.58,0,0,1,.06-.38c.4.15.37.64.4,1Z" transform="translate(-0.01 -0.25)"/><path class="cls-3" d="M17.33,28c.32.06.69-.34.84.09A4.78,4.78,0,0,1,17.79,30c-.29.29-.72.06-1,.2s-.52,1.19-1.07.5c-.23-.09-.38.14-.49.26a4.94,4.94,0,0,1-.87,1.53c-.09.05-.23.11-.32,0-.05-.38.23-1-.31-1.16a1.3,1.3,0,0,0-.64.2c-.43,0-1,0-1.24.41-.06.2-.09.49-.35.52s-.61-.2-.72-.55c-.12-.09-.29-.2-.44-.06s-.32.64-.69.64a1.68,1.68,0,0,1-.78-.21c.06-.66.81-.75,1.27-1,.92-.2,1.62-.78,2.55-.95a11.3,11.3,0,0,0,3.72-2.72,1.76,1.76,0,0,1,.52-.14c.12.23.12.55.44.6Z" transform="translate(-0.01 -0.25)"/><path class="cls-3" d="M10.27,30.7a1.07,1.07,0,0,1-1,.15c-.17-.18-.08-.49-.11-.75s.34-.15.49-.06.6.32.6.66Z" transform="translate(-0.01 -0.25)"/><path class="cls-3" d="M22.65,34.43a2.24,2.24,0,0,1-.29,1.13,3.78,3.78,0,0,0-1.13,1.76c0,.49-.06,1-.08,1.42-.15.12-.27-.06-.35-.15-.23-.34-.17-1.12-.78-1a1.34,1.34,0,0,0-.44,1.33c.26.38.78.67.49,1.16-.43.23-.31.9-.89,1-.87.12-1.76-.26-2.46.35a2,2,0,0,0-.49.78c-.41.06-.29-.49-.49-.72s-.44-.09-.64-.2-.63-.47-1-.21-.69.58-1.07.27l-.52-.15c0-.17.17-.4,0-.58l-1-.46c-.06-.09,0-.2.08-.26.84-.55,1.8.09,2.78-.09a5,5,0,0,1,1.94-.09c.37,0,.83.12,1.07-.2a.65.65,0,0,0,.05-.72c-.29-.64-1.21-.78-1.33-1.53a.6.6,0,0,0-.31-.35c-.24-.08-.38.17-.61.06-.06-.2-.12-.46-.35-.55-.43,0-.95.2-1.33-.09.06-.23.35-.17.52-.29a7.12,7.12,0,0,0,1.68-.78l.84-.11c.84-1.36,2.54-1.27,4-1.33L22,33.33c.5.12.61.7.7,1.1Z" transform="translate(-0.01 -0.25)"/><path class="cls-3" d="M13.43,39.12c-.27.17-.61.05-.9,0a.8.8,0,0,1-.2-.64c.43-.2.89.23,1.1.61Z" transform="translate(-0.01 -0.25)"/><path class="cls-3" d="M26.35,43.8c0,.14-.18.12-.23.12s-.12-.06-.18-.12c0-.26.35-.12.41,0Z" transform="translate(-0.01 -0.25)"/><path class="cls-5" d="M22.59,19.74a.33.33,0,0,1-.29.41,1.06,1.06,0,0,1-.92-.26c-.26-.2-.12-.55-.06-.81a.36.36,0,0,1,.46-.06,3.3,3.3,0,0,1,.81.72Z" transform="translate(-0.01 -0.25)"/><path class="cls-5" d="M24.24,20.24a1,1,0,0,1-.26.63.2.2,0,0,1-.32-.11.71.71,0,0,1,.2-.64.24.24,0,0,1,.38.12Z" transform="translate(-0.01 -0.25)"/><path class="cls-5" d="M22.39,22.32l0,.49c-.49.55-.49,1.39-1.24,1.71a.35.35,0,0,1-.41-.29,2.6,2.6,0,0,1,0-1c.32-.18.41.46.66.17a4.82,4.82,0,0,1,.73-1.19c.11,0,.2.06.26.15Z" transform="translate(-0.01 -0.25)"/><polygon class="cls-5" points="0.29 13.07 44.43 13.07 44.43 16.11 0.29 16.11 0.29 13.07 0.29 13.07"/><polygon class="cls-6" points="0.29 13.07 44.43 13.07 44.43 16.11 0.29 16.11 0.29 13.07 0.29 13.07"/><polygon class="cls-3" points="33.11 13.62 38.13 13.62 38.13 15.56 33.11 15.56 33.11 13.62 33.11 13.62"/><polygon class="cls-3" points="22.21 13.62 27.22 13.62 27.22 15.56 22.21 15.56 22.21 13.62 22.21 13.62"/><polygon class="cls-3" points="11.23 13.62 16.24 13.62 16.24 15.57 11.23 15.57 11.23 13.62 11.23 13.62"/><polygon class="cls-3" points="0.82 13.62 5.38 13.62 5.38 15.57 0.82 15.57 0.82 13.62 0.82 13.62"/><path class="cls-5" d="M42.43,2.43c.36.44.12,1.07.21,1.61.39.33,1.23,0,1.32.72a.81.81,0,0,1-.27.69c-.27.27-.75,0-1,.3-.09.9,0,1.88,0,2.9.27.18.63.15.93.3a1,1,0,0,1,.3.6.61.61,0,0,1-.42.51c-.24.12-.66,0-.78.33s0,1-.06,1.52a2.62,2.62,0,0,1-1.08.15l-3.53,0c-.33.18-.69.51-1.14.33A5.15,5.15,0,0,0,34.29,12l-2.63,0c-.48-.42-.12-1.13-.27-1.64-.18-.3-.66-.18-1-.33a.6.6,0,0,1-.3-.66.64.64,0,0,1,.57-.51c.21-.12.6.09.69-.24,0-.93-.06-1.83,0-2.69-.06-.54-.78-.21-1.08-.42A.74.74,0,0,1,30,4.67c.24-.51.84-.39,1.29-.54L31.39,4l.06-1.55.15-.12,4.1.09A4.5,4.5,0,0,1,37,2.75c.87-.65,2.16-.32,3.21-.5.71.15,1.46,0,2.18.18Z" transform="translate(-0.01 -0.25)"/><path class="cls-7" d="M42.43,2.43c.36.44.12,1.07.21,1.61.39.33,1.23,0,1.32.72a.81.81,0,0,1-.27.69c-.27.27-.75,0-1,.3-.09.9,0,1.88,0,2.9.27.18.63.15.93.3a1,1,0,0,1,.3.6.61.61,0,0,1-.42.51c-.24.12-.66,0-.78.33s0,1-.06,1.52a2.62,2.62,0,0,1-1.08.15l-3.53,0c-.33.18-.69.51-1.14.33A5.15,5.15,0,0,0,34.29,12l-2.63,0c-.48-.42-.12-1.13-.27-1.64-.18-.3-.66-.18-1-.33a.6.6,0,0,1-.3-.66.64.64,0,0,1,.57-.51c.21-.12.6.09.69-.24,0-.93-.06-1.83,0-2.69-.06-.54-.78-.21-1.08-.42A.74.74,0,0,1,30,4.67c.24-.51.84-.39,1.29-.54L31.39,4l.06-1.55.15-.12,4.1.09A4.5,4.5,0,0,1,37,2.75c.87-.65,2.16-.32,3.21-.5.71.15,1.46,0,2.18.18Z" transform="translate(-0.01 -0.25)"/><path class="cls-5" d="M27.75,2.32c.18,0,.36.12.5.21.16.56,0,1,.12,1.58.39.15,1,0,1.17.51a.83.83,0,0,1-.06.75c-.3.39-1,0-1.2.48a20.7,20.7,0,0,0,0,2.84c.3.3.84.06,1.11.45a.68.68,0,0,1,.15.63c-.24.39-.75.39-1.17.48-.17.15,0,.42-.09.63-.14.39.21.87-.23,1.1-1.23.18-2.4-.06-3.66,0L23.2,12c-.33.21-.72.54-1.14.3L21.31,12c-.9,0-1.74,0-2.63,0-.6,0-1.44.24-1.83-.32a5.79,5.79,0,0,0,0-1.44c-.45-.15-1.2.06-1.44-.51a1,1,0,0,1,.06-.6c.33-.48,1.08-.06,1.41-.45l0-1.32a11.06,11.06,0,0,0,0-1.73c-.45-.18-1.23.06-1.32-.63A.6.6,0,0,1,16,4.29c.3-.09.72.06.87-.21l.09-1.4c.36-.6,1.23-.24,1.77-.33l2.72,0c.42.06.81.47,1.23.21,1.61-.66,3.44-.09,5.12-.27Z" transform="translate(-0.01 -0.25)"/><path class="cls-7" d="M27.75,2.32c.18,0,.36.12.5.21.16.56,0,1,.12,1.58.39.15,1,0,1.17.51a.83.83,0,0,1-.06.75c-.3.39-1,0-1.2.48a20.7,20.7,0,0,0,0,2.84c.3.3.84.06,1.11.45a.68.68,0,0,1,.15.63c-.24.39-.75.39-1.17.48-.17.15,0,.42-.09.63-.14.39.21.87-.23,1.1-1.23.18-2.4-.06-3.66,0L23.2,12c-.33.21-.72.54-1.14.3L21.31,12c-.9,0-1.74,0-2.63,0-.6,0-1.44.24-1.83-.32a5.79,5.79,0,0,0,0-1.44c-.45-.15-1.2.06-1.44-.51a1,1,0,0,1,.06-.6c.33-.48,1.08-.06,1.41-.45l0-1.32a11.06,11.06,0,0,0,0-1.73c-.45-.18-1.23.06-1.32-.63A.6.6,0,0,1,16,4.29c.3-.09.72.06.87-.21l.09-1.4c.36-.6,1.23-.24,1.77-.33l2.72,0c.42.06.81.47,1.23.21,1.61-.66,3.44-.09,5.12-.27Z" transform="translate(-0.01 -0.25)"/><path class="cls-5" d="M7.53,2.65C9,2,10.64,2.47,12.26,2.38c.41.09,1-.21,1.31.24,0,.47,0,.92,0,1.4s.63.06.9.24.33.18.36.36a.75.75,0,0,1-.09.66c-.3.33-.69.21-1.08.3l-.12.18a17.1,17.1,0,0,0,0,2.48c0,.18-.09.42.12.54a1.63,1.63,0,0,1,1.14.27,1,1,0,0,1,.06.72c-.18.9-1.56-.12-1.41.93A3.63,3.63,0,0,1,13.42,12c-1.61,0-3.26-.11-4.79,0a1.68,1.68,0,0,1-1,.42A2.22,2.22,0,0,1,6.78,12c-1.47,0-2.9,0-4.31-.08-.45-.4-.12-1-.27-1.59-.24-.27-.6-.06-.87-.21s-.27-.24-.39-.39a1,1,0,0,1,.24-.81,1.68,1.68,0,0,1,.87-.18l.15-.15a24.66,24.66,0,0,0-.06-3c-.15-.21-.42,0-.6-.18S1,5.25.91,5,.79,4.47,1,4.26s.9.06,1.2-.3l.12-1.43c.24-.42.81-.21,1.23-.21A10.61,10.61,0,0,1,6,2.32a4.53,4.53,0,0,1,1.56.33Z" transform="translate(-0.01 -0.25)"/><path class="cls-7" d="M7.53,2.65C9,2,10.64,2.47,12.26,2.38c.41.09,1-.21,1.31.24,0,.47,0,.92,0,1.4s.63.06.9.24.33.18.36.36a.75.75,0,0,1-.09.66c-.3.33-.69.21-1.08.3l-.12.18a17.1,17.1,0,0,0,0,2.48c0,.18-.09.42.12.54a1.63,1.63,0,0,1,1.14.27,1,1,0,0,1,.06.72c-.18.9-1.56-.12-1.41.93A3.63,3.63,0,0,1,13.42,12c-1.61,0-3.26-.11-4.79,0a1.68,1.68,0,0,1-1,.42A2.22,2.22,0,0,1,6.78,12c-1.47,0-2.9,0-4.31-.08-.45-.4-.12-1-.27-1.59-.24-.27-.6-.06-.87-.21s-.27-.24-.39-.39a1,1,0,0,1,.24-.81,1.68,1.68,0,0,1,.87-.18l.15-.15a24.66,24.66,0,0,0-.06-3c-.15-.21-.42,0-.6-.18S1,5.25.91,5,.79,4.47,1,4.26s.9.06,1.2-.3l.12-1.43c.24-.42.81-.21,1.23-.21A10.61,10.61,0,0,1,6,2.32a4.53,4.53,0,0,1,1.56.33Z" transform="translate(-0.01 -0.25)"/><path class="cls-3" d="M7.32,3l.12.27c.06,2,.06,4,.06,6.14l-.06.77c-.51,0-1-.24-1.59-.18a10.52,10.52,0,0,1-1.71-.09A6.21,6.21,0,0,1,4,7.81c0-1.5.06-3.32.06-4.94,0-.12.14-.18.23-.21,1,.09,2.19-.18,3,.36Z" transform="translate(-0.01 -0.25)"/><path class="cls-3" d="M3.34,2.84c-.27.21-.63.6-.51,1,.12,2.51,0,4.76.12,7.12l.21.24a20.47,20.47,0,0,1,3.59.09c.06,0,.06.12,0,.18a2.72,2.72,0,0,1-1,.06l-3-.06c-.21-.18-.12-.6-.12-.84s.09-.66-.24-.84-.84,0-1.11-.29c.21-.6,1.17-.13,1.35-.78.09-1.11-.09-2.22,0-3.27-.12-.59-.78-.41-1.2-.51-.06-.06-.15-.14-.12-.26.36-.36,1.08.06,1.35-.45a11,11,0,0,0,.09-1.38.66.66,0,0,1,.63-.09v.12Z" transform="translate(-0.01 -0.25)"/><path class="cls-3" d="M11.78,2.87c0,2.43,0,4.73,0,7.09A22.31,22.31,0,0,0,8,10.2C7.74,10,8,9.57,7.89,9.25c-.06-.78,0-1.65,0-2.46,0-1.17-.06-2.48,0-3.62a1,1,0,0,1,1-.48l2.82,0,.09.15Z" transform="translate(-0.01 -0.25)"/><path class="cls-3" d="M13.15,2.84c.09.48-.11,1.11.18,1.59.3.18.75.09,1.05.15a.36.36,0,0,1,0,.42c-.33.32-1-.1-1.2.44,0,1.17-.06,2.31,0,3.51l.18.15c.39.06.87-.09,1.14.21,0,.18,0,.36-.18.41-.39.09-1-.11-1.17.3a11.6,11.6,0,0,1-.09,1.44l-.21.09-4.22-.06c-.09-.06,0-.12,0-.18l.42-.15,3.42,0c.35-.09.35-.54.38-.81,0-1.67,0-3.14,0-4.76a11.61,11.61,0,0,0-.06-2.36c0-.18-.29-.3-.32-.51.18-.09.51-.09.62.09Z" transform="translate(-0.01 -0.25)"/><path class="cls-3" d="M32.43,2.81c-.06.24-.36.42-.45.66,0,2.45,0,5.12.09,7.66l.21.12c1.32,0,2.72-.27,3.86.27.06,0,0,0,0,.06-1.44,0-2.87.09-4.28,0l-.12-.15a4.29,4.29,0,0,0-.18-1.53c-.33-.3-1.29.09-1-.6.36-.26.93.09,1.14-.35,0-1.26.06-2.37,0-3.54-.27-.36-.78-.12-1.13-.2-.12-.13-.22-.3-.1-.45.39-.33,1.53.09,1.32-.84.12-.39-.18-1.14.36-1.17.12,0,.27,0,.36.09Z" transform="translate(-0.01 -0.25)"/><path class="cls-3" d="M42.19,2.87c.12.57-.12,1.14.21,1.65.36.09.93-.12,1.11.24,0,.71-1,.14-1.23.71.09,1.14-.09,2.07,0,3.3a.22.22,0,0,0-.06.33c.33.26.75-.18,1.08.11.2.06.09.25.09.36-.27.39-.93-.06-1.11.45l-.06,1.5-.21.09-4,0c-.06-.06,0-.09,0-.12l.48-.18h3c.15,0,.36-.15.36-.36,0-2.36-.06-4.82-.06-7.39l-.36-.72c.15-.15.57-.18.66.06Z" transform="translate(-0.01 -0.25)"/><path class="cls-3" d="M32.88,3.8v6.43c-.06.18-.27.27-.39.39l-.12-.09c0-.69,0-1.46,0-2.12V7.9c0-1.41,0-3,0-4.4.12-.12.24-.36.39-.42a3,3,0,0,1,.12.72Z" transform="translate(-0.01 -0.25)"/><path class="cls-3" d="M41.62,3.47c-.06,1.68,0,3.26,0,4.85,0,.75,0,1.4,0,2.09,0,.06,0,.09-.09.12-.51-.21-.33-.78-.36-1.22a14.56,14.56,0,0,1,.06-2l-.09-.21,0-3.92c.12-.27.36.12.45.27Z" transform="translate(-0.01 -0.25)"/><path class="cls-3" d="M3.64,3.11c.12,2.42,0,4.76,0,7.06a.33.33,0,0,1-.29.27,6.85,6.85,0,0,1-.09-2.21c-.06-1.53,0-3.23,0-4.76a.76.76,0,0,1,.39-.36Z" transform="translate(-0.01 -0.25)"/><path class="cls-3" d="M12.56,3.38c0,2.42,0,4.82-.06,7-.06.12-.18,0-.27-.09a3,3,0,0,1,0-1.16c-.09-2,0-3.93,0-5.9.12-.15.3,0,.36.15Z" transform="translate(-0.01 -0.25)"/><path class="cls-3" d="M37.22,6.43c-.06.15-.33.15-.48.09l-.15-.06c.09-.33,0-.72.27-1,.27.18.24.6.36.93Z" transform="translate(-0.01 -0.25)"/><path class="cls-3" d="M12.23,10.71c-.09.18-.36.09-.54.15h-1a9.29,9.29,0,0,0-2.25.06.29.29,0,0,1-.23-.27c.09-.27.41-.18.65-.27.93,0,2,0,2.94,0a.83.83,0,0,1,.39.33Z" transform="translate(-0.01 -0.25)"/><path class="cls-3" d="M7.2,10.59c0,.15-.12.3-.27.36a20,20,0,0,0-3-.21l0,0a.44.44,0,0,1,.41-.33,13,13,0,0,1,2.91.21Z" transform="translate(-0.01 -0.25)"/><path class="cls-3" d="M36.59,10.68c.09.06.09.21,0,.24-.36.42-.81-.09-1.29,0-.77-.09-1.64,0-2.42-.09.21-.66,1.14-.27,1.65-.39.68.09,1.46-.12,2.06.24Z" transform="translate(-0.01 -0.25)"/><path class="cls-3" d="M41,10.53a.69.69,0,0,1,.33.39c-1.23.15-2.43-.15-3.59.18a.26.26,0,0,1-.18-.36c.24-.27.63-.21,1-.27l2.45.06Z" transform="translate(-0.01 -0.25)"/><path class="cls-3" d="M8.19,11.16a.6.6,0,0,1-.18.66.45.45,0,0,1-.54.09c-.18,0-.21-.24-.24-.39-.06-.33.27-.45.45-.69a.77.77,0,0,1,.51.33Z" transform="translate(-0.01 -0.25)"/><path class="cls-3" d="M37.46,11.34c0,.27,0,.66-.33.66a.45.45,0,0,1-.51-.3A.67.67,0,0,1,37,11c.27,0,.39.18.51.33Z" transform="translate(-0.01 -0.25)"/><path class="cls-3" d="M26.52,2.93c0,2.33,0,4.73,0,7.06l-.12.06c-1.29.12-2.54-.21-3.71.21-.21-.12,0-.47-.09-.69V3.35a.49.49,0,0,1,.33-.45c.33-.24.77-.15,1.19-.21l2.37.06.06.18Z" transform="translate(-0.01 -0.25)"/><path class="cls-3" d="M27.93,2.87A6.82,6.82,0,0,0,28,4.43c.35.33,1.37-.15,1.16.65-.33.22-.77.06-1.13.12L28,5.32c-.15,1.2.09,2.43,0,3.51,0,.12.09.33.27.36s.83-.21.95.21c-.06.71-1,.06-1.22.62s.15,1-.06,1.53l-.15.09c-1.53,0-3,0-4.46-.06-.06,0,0-.12,0-.15l.27-.15c1.19-.12,2.51,0,3.77-.12a.33.33,0,0,0,.3-.36c0-2.27,0-4.64,0-7.18-.06-.36-.42-.57-.48-.9.21,0,.6-.12.72.15Z" transform="translate(-0.01 -0.25)"/><path class="cls-3" d="M18,2.75c-.06.27-.3.36-.42.57-.18.48,0,1-.06,1.47,0,2.06,0,4,0,6a.39.39,0,0,0,.27.36l3.2.06a1,1,0,0,1,.51.21c-.06.18-.3.12-.45.15-1.2,0-2.48.06-3.65-.09l-.12-.09a4,4,0,0,0-.21-1.59c-.36-.15-.81,0-1.2-.12-.18-.09-.12-.32,0-.45.39-.2,1.14.13,1.35-.41,0-1.17.06-2.28,0-3.48-.33-.48-1,0-1.32-.48.12-.68,1.08-.08,1.35-.65l.09-1.41c.18-.18.42-.12.63-.09Z" transform="translate(-0.01 -0.25)"/><path class="cls-3" d="M18.44,3.17c.09,2.06-.12,3.92,0,6-.18.47.21,1.16-.48,1.28-.12-2.06,0-4.28-.09-6.52a.87.87,0,0,1,.45-.87l.12.12Z" transform="translate(-0.01 -0.25)"/><path class="cls-3" d="M27.33,3.53c0,2.27.06,4.73-.09,6.94-.12,0-.27-.12-.3-.24,0-.92-.12-1.85-.06-2.84.06-1.29-.09-2.81.06-4.13.15-.09.39.09.39.27Z" transform="translate(-0.01 -0.25)"/><path class="cls-3" d="M21.85,10.59c.12,0,.27.15.18.3l-.24.21c-1.05-.39-2.37-.12-3.47-.3a1.46,1.46,0,0,1,.33-.42,19,19,0,0,1,3.2.21Z" transform="translate(-0.01 -0.25)"/><path class="cls-3" d="M26.61,10.44c.15.09.33.24.33.39l-.15.06a16.83,16.83,0,0,0-3.71.15c-.18,0-.39,0-.42-.21.12-.27.48-.36.77-.39,1.08-.09,2.13,0,3.18,0Z" transform="translate(-0.01 -0.25)"/><path class="cls-3" d="M22.75,11.43c0,.24,0,.54-.3.54s-.54,0-.54-.3a.93.93,0,0,1,.45-.51c.21-.06.33.15.39.27Z" transform="translate(-0.01 -0.25)"/><path class="cls-3" d="M22.15,7.66c.12-1.2,0-2.55.06-3.68,0-.36,0-.78-.24-1a9.12,9.12,0,0,0-3-.24c-.06,0-.18,0-.15.09,0,2.37,0,4.58,0,6.91l.05.27a13.27,13.27,0,0,0,2.19.06c.39.06.78.18,1.14.24a18.16,18.16,0,0,0,0-2.21l0-.42Z" transform="translate(-0.01 -0.25)"/><path class="cls-5" d="M21.85,7.57c-.36-.3-.45-.75-.75-1.11.12-.18.33-.21.48-.36a.94.94,0,0,0,.36-.92.91.91,0,0,0-.48-.75,4.83,4.83,0,0,0-2.07-.09.16.16,0,0,0-.06.27.54.54,0,0,1,.36.47c0,.81,0,1.62-.12,2.43l-.33.36c.33.3.78.06,1.26.15.12-.21-.21-.36-.27-.6s0-.57.15-.78c.45.39.6,1,1.14,1.38l.7.05V7.69c-.1.06-.27-.09-.36-.12ZM20.92,6.1c-.21,0-.54.15-.6-.12s-.15-.9,0-1.25a.66.66,0,0,1,.9.15,1.42,1.42,0,0,1,.12.71c-.12.21-.18.45-.42.51Z" transform="translate(-0.01 -0.25)"/><path class="cls-3" d="M40.84,3.56a1.6,1.6,0,0,0-.12-.84l-1.08,0c-.77.12-1.64-.12-2.27.27-.3.36-.15.78-.21,1.2l.22.76-.14.32-.46-.08-.12-.27c.05-.18.1-.36.14-.55,0-.51.15-1.29-.51-1.5-1-.09-1.88-.12-2.93-.12a.21.21,0,0,0-.18.09c0,2.3,0,4.28,0,6.55,0,.27-.09.63.21.75.86-.12,1.64,0,2.48,0,.33,0,.54.3.87.21a25.49,25.49,0,0,0,.06-3c0-.08,0-.28-.12-.32V6.73l.52.06.05.17L37.22,7l-.06,3.08c0,.09,0,.33.21.3.93-.54,2.06-.18,3.14-.3l.24-.09a16.51,16.51,0,0,0,.06-2.33c.06-1.35,0-2.69,0-4.13Z" transform="translate(-0.01 -0.25)"/><path class="cls-5" d="M37.37,6.94a.84.84,0,0,1,.18.6l-.24.33.15.12a3.79,3.79,0,0,0,1.17-.06c-.09-.18-.3-.24-.42-.36-.42-1.1-.72-2.27-1.05-3.4l-.36.17c-.21,1-.63,1.94-.87,3-.06.21-.27.24-.42.36s-.3-.18-.39-.3c0-.9.09-1.65,0-2.61,0-.14.15-.32.3-.17s.21.41.3.62A.13.13,0,0,0,36,5.17l.15-.92c-.12-.3-.39,0-.63,0A3.15,3.15,0,0,1,34,4.07c-.36.12-.27.63-.33.95a.13.13,0,0,0,0,.15c.3-.17.45-.65.86-.53l0,.89-.09,2c-.12.15-.42.21-.39.42A10,10,0,0,0,35.78,8a2.12,2.12,0,0,0,.87,0,.15.15,0,0,0,0-.21c-.18-.09-.39-.24-.33-.48s.12-.45.39-.36a.11.11,0,0,1,.11.08l.43,0h0c.06-.06.06-.09.15-.09Zm-.63-.42-.15-.06c.09-.33,0-.72.27-1,.27.18.24.6.36.93-.06.15-.33.15-.48.09Z" transform="translate(-0.01 -0.25)"/><path class="cls-5" d="M40.1,4.48c0,.22.16.62,0,.77-.21-.18-.24-.37-.58-.46-.18,0-.36,0-.39.25-.06.64.58.64.94,1.06a1.34,1.34,0,0,1,.34,1.32c-.14.34-.31.55-.64.55s-.52-.16-.77,0c-.06,0-.18.07-.24,0l0-1.19a.16.16,0,0,1,.15-.09c.19.4.06.85.61.88.19,0,.34,0,.37-.29.06-1.07-1.34-.8-1.31-1.9a1.71,1.71,0,0,1,.18-.67c.24-.4.79-.16,1.16-.4.15-.06.15.15.18.24Z" transform="translate(-0.01 -0.25)"/><path class="cls-5" d="M25.08,4.43c-.3.15-.63.39-.54.8a14,14,0,0,0,0,2.25L25,7.9,25,8a8.24,8.24,0,0,1-1.49,0c-.21-.24.27-.36.36-.54a13.42,13.42,0,0,0,.08-2.63c-.08-.27-.54-.15-.42-.45a6.27,6.27,0,0,1,1.5,0l.09.09Z" transform="translate(-0.01 -0.25)"/><path class="cls-5" d="M10.55,5c-.3.36-.36-.33-.66-.36s-.45-.09-.6.06a2.27,2.27,0,0,0,0,1.1c.12.09.36.06.51.06s.27-.45.51-.42-.06.39,0,.54c-.06.24.15.51-.12.6-.18-.09-.27-.42-.51-.42l-.42,0a3.3,3.3,0,0,0,0,1.53c.24.24.54,0,.81,0s.3-.63.63-.57a1.37,1.37,0,0,1,.06.78l-.18.12-2.13,0c-.09,0-.29,0-.2-.18C9,7.45,8.57,6.64,8.66,6c-.09-.48.27-1.19-.35-1.49,0-.18.17-.12.23-.18.54,0,1.26.21,1.68-.24.33.18.3.6.33.93Z" transform="translate(-0.01 -0.25)"/><path class="cls-5" d="M7.29,4.52c-.6.48-.63,1.31-.9,2-.24.39-.12,1-.51,1.29-.15.06-.27-.09-.3-.21a19.91,19.91,0,0,0-.81-2.72c0-.27-.65-.33-.3-.54.45-.06.78.06,1.2,0,.09.27-.33.42-.21.74.27.39.18,1,.51,1.38l.15-.15c0-.69.81-1.32.15-1.91.15-.27.6-.09.9-.18.06.06.27.12.12.27Z" transform="translate(-0.01 -0.25)"/><path class="cls-2" d="M237.91,6.44H242c2.16,0,3.76.7,3.76,2.69a2.28,2.28,0,0,1-1.91,2.48v0a2.45,2.45,0,0,1,2.24,2.65c0,2-1.62,3-3.83,3h-4.34ZM241.82,11c1.43,0,2.18-.44,2.18-1.47s-.65-1.43-2.16-1.43H239.7V11Zm.24,4.71c1.55,0,2.22-.49,2.22-1.58s-.87-1.58-2.41-1.58H239.7v3.16Z" transform="translate(-0.01 -0.25)"/><path class="cls-2" d="M248.51,6.44h1.82v9.13h5v1.67h-6.8Z" transform="translate(-0.01 -0.25)"/><path class="cls-2" d="M260.27,6.4h1.79l3.82,10.84H264l-.88-2.57H259l-.89,2.57h-1.7Zm2.33,6.66-1.47-4.37h0l-1.5,4.37Z" transform="translate(-0.01 -0.25)"/><path class="cls-2" d="M266.1,6.44H268l2.78,8.42h0l2.83-8.42h1.72l-3.75,10.84h-1.72Z" transform="translate(-0.01 -0.25)"/><path class="cls-2" d="M279.36,6.4h1.8L285,17.24h-1.87l-.87-2.57h-4.1l-.89,2.57h-1.71Zm2.34,6.66-1.48-4.37h0l-1.5,4.37Z" transform="translate(-0.01 -0.25)"/><path class="cls-2" d="M288.11,8.13h-3.32V6.44h8.47V8.13h-3.32v9.11h-1.83Z" transform="translate(-0.01 -0.25)"/><path class="cls-2" d="M295.25,6.44h1.85l5.1,7.7h0V6.44h1.7v10.8h-1.67L297,9.37h0v7.87h-1.69Z" transform="translate(-0.01 -0.25)"/><path class="cls-2" d="M306.86,6.44h1.83v10.8h-1.83Z" transform="translate(-0.01 -0.25)"/><path class="cls-2" d="M311.63,6.44h1.82v5l4.25-5h2.16l-3.68,4.16,4.13,6.64h-2.09L315,12l-1.53,1.69v3.55h-1.82Z" transform="translate(-0.01 -0.25)"/><path class="cls-2" d="M326.16,6.58H328V17.24h-1.81Z" transform="translate(-0.01 -0.25)"/><path class="cls-2" d="M330.87,6.58h1.83l5,7.6h0V6.58h1.67V17.24H337.8l-5.23-7.77h0v7.77h-1.67Z" transform="translate(-0.01 -0.25)"/><path class="cls-2" d="M341.66,14.73l1.43-.75A3.09,3.09,0,0,0,346,15.84c1.29,0,2.17-.42,2.17-1.38s-.66-1.36-2.42-1.88c-2.06-.6-3.72-1.16-3.72-3.19,0-1.82,1.49-3,3.65-3a4.19,4.19,0,0,1,4,2.29l-1.31.9A3,3,0,0,0,345.69,8c-1.18,0-1.85.43-1.85,1.21,0,1,.76,1.32,2.5,1.84,2,.59,3.63,1.25,3.63,3.26,0,1.74-1.48,3.11-4,3.11A4.43,4.43,0,0,1,341.66,14.73Z" transform="translate(-0.01 -0.25)"/><path class="cls-2" d="M354.25,8.25H351V6.58h8.37V8.25h-3.29v9h-1.8Z" transform="translate(-0.01 -0.25)"/><path class="cls-2" d="M361.41,6.58h1.82V17.24h-1.82Z" transform="translate(-0.01 -0.25)"/><path class="cls-2" d="M368.59,8.25h-3.28V6.58h8.37V8.25h-3.29v9h-1.8Z" transform="translate(-0.01 -0.25)"/><path class="cls-2" d="M375.49,13.35V6.58h1.8v6.61c0,1.63.71,2.59,2.35,2.59S382,14.84,382,13.2V6.58h1.77v6.75a3.75,3.75,0,0,1-4.12,4.08C376.69,17.41,375.49,15.77,375.49,13.35Z" transform="translate(-0.01 -0.25)"/><path class="cls-2" d="M388.85,8.25h-3.28V6.58h8.36V8.25h-3.28v9h-1.8Z" transform="translate(-0.01 -0.25)"/><path class="cls-2" d="M395.9,6.58h6.88V8.25H397.7V10.9h3.73v1.6H397.7v3.09h5.37v1.65H395.9Z" transform="translate(-0.01 -0.25)"/><path d="M237.37,27c0-3.42,1.86-5.49,4.7-5.49a3.93,3.93,0,0,1,4.13,3.35l-1.67.45c-.47-1.6-1.21-2.13-2.48-2.13s-2.86.78-2.86,3.77,1.42,4,2.94,4a2.35,2.35,0,0,0,2.49-2.41h-2.15V27.09h3.88v5.27h-1.49V30.82h0a3.07,3.07,0,0,1-2.91,1.74C238.87,32.56,237.37,30.24,237.37,27Z" transform="translate(-0.01 -0.25)"/><path d="M248.76,21.7h1.81v9h4.91v1.64h-6.72Z" transform="translate(-0.01 -0.25)"/><path d="M256.28,27c0-3.59,2.12-5.53,4.83-5.53s4.79,1.94,4.79,5.53-2.1,5.53-4.79,5.53S256.28,30.62,256.28,27Zm7.81,0c0-2.51-1.2-3.88-3-3.88s-3,1.37-3,3.88,1.19,3.9,3,3.9S264.09,29.54,264.09,27Z" transform="translate(-0.01 -0.25)"/><path d="M268,21.7h4c2.13,0,3.72.69,3.72,2.65a2.26,2.26,0,0,1-1.89,2.45v0a2.4,2.4,0,0,1,2.2,2.6c0,2-1.59,2.93-3.77,2.93H268Zm3.86,4.45c1.41,0,2.16-.43,2.16-1.45s-.65-1.42-2.13-1.42h-2.12v2.87Zm.24,4.65c1.53,0,2.19-.49,2.19-1.55s-.86-1.57-2.37-1.57h-2.15V30.8Z" transform="translate(-0.01 -0.25)"/><path d="M280.76,21.66h1.78l3.77,10.7h-1.85l-.86-2.54h-4.05l-.88,2.54H277Zm2.31,6.58-1.46-4.32h0l-1.48,4.32Z" transform="translate(-0.01 -0.25)"/><path d="M288,21.7h1.8v9h4.91v1.64H288Z" transform="translate(-0.01 -0.25)"/><path d="M299.67,21.7h1.8V26h4.84V21.7h1.8V32.36h-1.8V27.62h-4.84v4.74h-1.8Z" transform="translate(-0.01 -0.25)"/><path d="M310.68,21.7h6.88v1.67h-5.08V26h3.73v1.6h-3.73v3.1h5.37v1.64h-7.17Z" transform="translate(-0.01 -0.25)"/><path d="M322.69,21.66h1.77l3.77,10.7h-1.84l-.87-2.54h-4l-.88,2.54h-1.69Zm2.3,6.58-1.45-4.32h0L322,28.24Z" transform="translate(-0.01 -0.25)"/><path d="M330,21.7h1.8v9h4.91v1.64H330Z" transform="translate(-0.01 -0.25)"/><path d="M339.58,23.37h-3.29V21.7h8.37v1.67h-3.28v9h-1.8Z" transform="translate(-0.01 -0.25)"/><path d="M346.41,21.7h1.8V26h4.84V21.7h1.8V32.36h-1.8V27.62h-4.84v4.74h-1.8Z" transform="translate(-0.01 -0.25)"/><path d="M360.33,29.72c0-1.65,1.14-2.55,2.47-3.21a5,5,0,0,1-.7-2.39,2.56,2.56,0,0,1,2.8-2.62c1.76,0,2.55,1.05,2.55,2.22,0,1.54-1.18,2.39-2.55,3.08.22.32.47.66.78,1a16.7,16.7,0,0,0,1.44,1.66,6.1,6.1,0,0,0,.86-2.55h1.57a8.08,8.08,0,0,1-1.24,3.42,3.56,3.56,0,0,0,2.05.66V32.5a5.5,5.5,0,0,1-3.16-.93,5,5,0,0,1-3.18,1C361.69,32.56,360.33,31.36,360.33,29.72Zm5.69.92a17.32,17.32,0,0,1-1.68-1.9c-.33-.41-.62-.79-.88-1.16a2.38,2.38,0,0,0-1.33,1.91c0,1.11.77,1.63,2.05,1.63A3.19,3.19,0,0,0,366,30.64Zm-.1-6.78a1,1,0,0,0-1-1A1,1,0,0,0,363.76,24a3.62,3.62,0,0,0,.53,1.8C365.2,25.31,365.92,24.8,365.92,23.86Z" transform="translate(-0.01 -0.25)"/><path d="M237.33,45l1.42-.74a3.1,3.1,0,0,0,2.94,1.85c1.3,0,2.18-.41,2.18-1.38s-.66-1.35-2.42-1.87c-2.06-.61-3.72-1.17-3.72-3.2,0-1.81,1.49-3,3.65-3a4.21,4.21,0,0,1,4,2.29l-1.31.91a3,3,0,0,0-2.7-1.56c-1.18,0-1.86.43-1.86,1.21,0,1,.77,1.33,2.51,1.85,2,.59,3.63,1.25,3.63,3.25,0,1.74-1.48,3.11-4,3.11A4.41,4.41,0,0,1,237.33,45Z" transform="translate(-0.01 -0.25)"/><path d="M247.08,42.15c0-3.59,2.12-5.53,4.83-5.53s4.79,1.94,4.79,5.53-2.1,5.53-4.79,5.53S247.08,45.74,247.08,42.15Zm7.81,0c0-2.51-1.2-3.87-3-3.87s-3,1.36-3,3.87,1.2,3.9,3,3.9S254.89,44.66,254.89,42.15Z" transform="translate(-0.01 -0.25)"/><path d="M258.23,42.12c0-3.57,2-5.5,4.68-5.5A3.88,3.88,0,0,1,267,39.93l-1.71.49c-.41-1.41-1-2.13-2.44-2.13-1.8,0-2.85,1.4-2.85,3.82S261.12,46,262.92,46c1.38,0,2.16-.69,2.57-2.29l1.71.39a4.13,4.13,0,0,1-4.29,3.54C260.17,47.68,258.23,45.79,258.23,42.12Z" transform="translate(-0.01 -0.25)"/><path d="M269.33,36.82h1.82V47.48h-1.82Z" transform="translate(-0.01 -0.25)"/><path d="M276.75,36.78h1.77l3.77,10.7h-1.84L279.58,45h-4l-.88,2.53H273Zm2.3,6.58L277.6,39h0l-1.49,4.32Z" transform="translate(-0.01 -0.25)"/><path d="M284,36.82h1.81v9h4.91v1.64H284Z" transform="translate(-0.01 -0.25)"/><path d="M295.66,36.82H298l2.85,8.46h0l2.77-8.46h2.42V47.48h-1.74V39.53h0a20.45,20.45,0,0,1-.64,2.17l-2.07,5.78H300L298,41.7a17.82,17.82,0,0,1-.65-2.24h0v8h-1.62Z" transform="translate(-0.01 -0.25)"/><path d="M308.66,36.82h6.89v1.67h-5.09v2.65h3.73v1.6h-3.73v3.1h5.38v1.64h-7.18Z" transform="translate(-0.01 -0.25)"/><path d="M317.75,36.82h3c3.34,0,5.53,1.56,5.53,5.29s-2.23,5.37-5.53,5.37h-3Zm3.2,9c2.43,0,3.57-1.07,3.57-3.76s-1.15-3.62-3.6-3.62h-1.37v7.38Z" transform="translate(-0.01 -0.25)"/><path d="M328.49,36.82h1.82V47.48h-1.82Z" transform="translate(-0.01 -0.25)"/><path d="M332.47,42.12c0-3.57,2-5.5,4.68-5.5a3.88,3.88,0,0,1,4.13,3.31l-1.71.49c-.4-1.41-1-2.13-2.44-2.13-1.8,0-2.85,1.4-2.85,3.82S335.36,46,337.16,46c1.39,0,2.16-.69,2.57-2.29l1.71.39a4.13,4.13,0,0,1-4.29,3.54C334.41,47.68,332.47,45.79,332.47,42.12Z" transform="translate(-0.01 -0.25)"/><path d="M343.57,36.82h1.82V47.48h-1.82Z" transform="translate(-0.01 -0.25)"/><path d="M348.07,36.82h1.82l5.05,7.61h0V36.82h1.68V47.48H355l-5.22-7.76h0v7.76h-1.67Z" transform="translate(-0.01 -0.25)"/><path d="M359.2,36.82h6.88v1.67H361v2.65h3.73v1.6H361v3.1h5.37v1.64H359.2Z" transform="translate(-0.01 -0.25)"/></svg>