<svg id="Layer_1" data-name="Layer 1" xmlns="http://www.w3.org/2000/svg" viewBox="0 0 1000 1000"><defs><style>.cls-2{fill:#fff}</style></defs><path fill="#2c0022" d="M0 0h1000v1000H0z"/><path class="cls-2" d="M180.65 432.69q7.44-5.58 19.23-5.58a52.59 52.59 0 0119.23 3.89A74.83 74.83 0 01239 442.93l24.2-47.46a160.07 160.07 0 00-36.29-14.12 147.59 147.59 0 00-36.29-4.81 96.22 96.22 0 00-33.66 5.59 72 72 0 00-25.44 15.66A70.09 70.09 0 00115.35 422a83 83 0 00-5.73 31.48q0 17.38 5.43 28.69a55.27 55.27 0 0014.26 18.77 72.3 72.3 0 0020.17 11.94q11.31 4.51 23.1 8.22 9.93 3.42 16.91 6.21a49.66 49.66 0 0111.32 6.05 19.77 19.77 0 016.2 7.13 20.84 20.84 0 011.87 9.15q0 8.68-7.29 15.51T179.41 572a64.85 64.85 0 01-26.37-5.9q-13.33-5.88-27-18l-26.06 49q37.85 26.37 82.2 26.37 21.41 0 38.31-5.74a81.68 81.68 0 0028.54-16.13 68 68 0 0017.68-25 84.3 84.3 0 006-32.57q0-26.67-13.81-43.27t-43.58-26.52q-7.44-2.49-15-4.66a83.17 83.17 0 01-13.65-5.11 32.53 32.53 0 01-9.77-7 14.47 14.47 0 01-3.72-10.23 17.4 17.4 0 017.47-14.55zM900 434.55v-51.49H766.93v233.88H900v-51.49h-72.27v-40.32H900v-51.5h-72.27v-39.08H900zM299.65 383.06v233.88h142.98v-51.49h-82.18V383.06h-60.8zM738.09 383.06H577.41v51.49h49.94v182.4h60.8v-182.4h49.94v-51.49zM471.95 383.06v46.13l31.36 90.04h-31.36v46.22h47.46l17.94 51.49h64.83l-89.02-233.88h-41.21z"/></svg>